<svg width="22" height="22" viewBox="0 0 22 22" fill="none" xmlns="http://www.w3.org/2000/svg">
<path d="M11.2863 0.667969C5.54746 0.667969 0.878906 5.33662 0.878906 11.0752C0.878906 16.8139 5.54746 21.4827 11.2863 21.4827C17.0248 21.4827 21.6937 16.8139 21.6937 11.0752C21.6937 5.33662 17.0248 0.667969 11.2863 0.667969ZM14.2277 7.23783C14.2277 7.28711 14.2081 7.33437 14.1733 7.36922C14.1384 7.40406 14.0912 7.42364 14.0419 7.42364L12.8588 7.42438C12.0782 7.42438 11.9355 7.72836 11.9355 8.32704V9.569H13.9646C14.0179 9.569 14.0688 9.59204 14.104 9.63217C14.1391 9.67231 14.1554 9.72563 14.1489 9.77859L13.86 12.0144C13.8542 12.0592 13.8323 12.1004 13.7984 12.1302C13.7645 12.16 13.7208 12.1765 13.6757 12.1765H11.9355V17.7283C11.9355 17.7775 11.9159 17.8248 11.8811 17.8597C11.8463 17.8945 11.799 17.9141 11.7497 17.9141H9.44117C9.39189 17.9141 9.34463 17.8945 9.30978 17.8597C9.27493 17.8248 9.25536 17.7775 9.25536 17.7283V12.1765H7.50964C7.46036 12.1765 7.4131 12.1569 7.37825 12.122C7.34341 12.0872 7.32383 12.0399 7.32383 11.9907V9.75481C7.32383 9.70553 7.34341 9.65826 7.37825 9.62342C7.4131 9.58857 7.46036 9.569 7.50964 9.569H9.25536V8.10574C9.25536 6.16775 10.4282 4.96407 12.3166 4.96407C13.1284 4.96407 13.8459 5.02446 14.0662 5.05363C14.1109 5.05954 14.1519 5.08146 14.1816 5.11534C14.2113 5.14921 14.2277 5.19272 14.2277 5.23777V7.23783Z" fill="#8A8A8A"/>
</svg>
