<svg width="44" height="44" viewBox="0 0 44 44" fill="none" xmlns="http://www.w3.org/2000/svg">
<g clip-path="url(#clip0_1695_698)">
<path d="M18.1289 0H43.7948V3.35648H18.1289V0Z" fill="white"/>
<path d="M2.82818 28.1579H24.4141L25.094 22.0552C25.1289 21.6368 24.9895 21.2183 24.7104 20.9045C24.3094 20.4599 23.6992 20.207 23.0366 20.207H4.20559C3.54301 20.207 2.93276 20.4599 2.54041 20.9045C2.25272 21.2183 2.10454 21.6368 2.14814 22.0552L2.82818 28.1579Z" fill="white"/>
<path d="M25.487 20.2081C25.9752 20.7399 26.2106 21.4548 26.1321 22.1697L25.6003 26.9908H30.4389V4.40234H18.1289V19.162H23.0372C23.9962 19.162 24.8941 19.5456 25.487 20.2081ZM27.187 12.606H28.2331V16.3984H27.187V12.606Z" fill="white"/>
<path d="M31.4844 26.9908H43.7943V4.40234H31.4844V26.9908ZM33.9428 12.606H34.989V16.3984H33.9428V12.606Z" fill="white"/>
<path d="M11.4241 3.54688H5.04248L4.14453 9.71051H12.322L11.4241 3.54688Z" fill="white"/>
<path d="M2.25 42.9532H3.61875L4.28999 40.8086H2.25V42.9532Z" fill="white"/>
<path d="M25.4492 28.3355C26.3995 28.6319 27.2102 29.2858 27.7072 30.1488V29.6868H33.7052V30.733H27.9774C28.1431 31.1688 28.2302 31.6309 28.2302 32.1017V33.3658C28.2302 33.7843 28.0646 34.1853 27.7769 34.4905C27.9949 34.7258 28.1431 35.0223 28.2041 35.3361H43.792V28.0391H25.4841L25.4492 28.3355Z" fill="white"/>
<path d="M27.1854 39.1615V35.6132C27.1854 35.2819 26.9152 35.0117 26.5839 35.0117H0.804642C0.473353 35.0117 0.203125 35.2819 0.203125 35.6132V39.1615C0.203125 39.4928 0.473353 39.763 0.804642 39.763H26.5752C26.9065 39.7717 27.1767 39.5014 27.1854 39.1702V39.1615Z" fill="white"/>
<path d="M28.2313 38.6194H33.7062V39.6656H28.1528C27.9261 40.3456 27.2898 40.8076 26.5748 40.8076H26.5312V43.0656H43.793V36.3789H28.2313V38.6194Z" fill="white"/>
<path d="M18.1289 40.8086V43.0666H23.0634L22.3572 40.8086H18.1289Z" fill="white"/>
<path d="M24.1254 42.9532H25.4854V40.8086H23.4453L24.1254 42.9532Z" fill="white"/>
<path d="M0.804714 33.9671H26.584C26.9153 33.9671 27.1855 33.6968 27.1855 33.3655V32.1014C27.1855 30.5061 25.8865 29.207 24.2911 29.207H3.09754C1.50215 29.207 0.203125 30.506 0.203125 32.1014V33.3655C0.203197 33.6968 0.473425 33.9671 0.804714 33.9671Z" fill="white"/>
<path d="M7.71094 10.2344H8.75713V19.1616H7.71094V10.2344Z" fill="white"/>
<path d="M8.75733 40.8086H7.71113V42.9532H6.05469V43.9994H10.6143V42.9532H8.75733V40.8086Z" fill="white"/>
</g>
<defs>
<clipPath id="clip0_1695_698">
<rect width="44" height="44" fill="white"/>
</clipPath>
</defs>
</svg>
