<svg width="44" height="44" viewBox="0 0 44 44" fill="none" xmlns="http://www.w3.org/2000/svg">
<g clip-path="url(#clip0_1695_681)">
<path d="M43.8612 19.5576C43.7917 18.9391 43.0703 18.4739 42.4466 18.4739C40.4307 18.4739 38.6417 17.2907 37.8914 15.4594C37.1255 13.5842 37.6197 11.3976 39.1216 10.0198C39.5946 9.58725 39.6523 8.86303 39.2557 8.3603C38.2236 7.05 37.0511 5.86624 35.7705 4.84042C35.2695 4.43854 34.5332 4.49448 34.0984 4.97571C32.7872 6.42796 30.4317 6.96761 28.6114 6.20818C26.7179 5.41146 25.5227 3.49206 25.6401 1.43186C25.6787 0.784318 25.2053 0.221648 24.5601 0.146486C22.9166 -0.0437987 21.2586 -0.049317 19.6104 0.133546C18.9733 0.203951 18.5003 0.753302 18.5214 1.39266C18.5928 3.43269 17.3841 5.31822 15.5088 6.0864C13.7104 6.82109 11.3713 6.28544 10.0627 4.84594C9.63018 4.37175 8.90691 4.31352 8.40246 4.70684C7.08417 5.74141 5.88519 6.92593 4.84358 8.22557C4.4377 8.73078 4.49764 9.46299 4.97468 9.89703C6.50628 11.284 7.00007 13.4894 6.20487 15.3865C5.44563 17.1952 3.56772 18.3603 1.41808 18.3603C0.720496 18.3379 0.224044 18.8065 0.146979 19.4409C-0.0463496 21.0932 -0.0484427 22.7776 0.137655 24.4433C0.207109 25.0644 0.949788 25.5256 1.58039 25.5256C3.49655 25.4769 5.33508 26.6624 6.10744 28.5399C6.876 30.4152 6.38126 32.6008 4.87687 33.9805C4.4063 34.4131 4.34617 35.1356 4.74349 35.6377C5.76512 36.9398 6.9388 38.1244 8.22321 39.1589C8.72747 39.565 9.46082 39.5081 9.89791 39.0263C11.2143 37.5706 13.5694 37.0319 15.3823 37.7929C17.2813 38.5875 18.4759 40.5067 18.3593 42.5675C18.321 43.215 18.7956 43.7794 19.4386 43.8529C20.2796 43.9513 21.1251 44 21.9732 44C22.7781 44 23.5831 43.956 24.3882 43.8664C25.0261 43.796 25.4984 43.2461 25.4769 42.6065C25.4032 40.5674 26.6146 38.6817 28.4875 37.9151C30.2979 37.1756 32.6266 37.7168 33.9359 39.1542C34.3707 39.6274 35.0896 39.6849 35.5962 39.2931C36.9122 38.2612 38.1089 37.0772 39.1551 35.7742C39.5613 35.2699 39.5037 34.5367 39.024 34.1019C37.4927 32.7159 36.9963 30.5096 37.7915 28.6143C38.5389 26.83 40.347 25.632 42.2917 25.632L42.5638 25.6392C43.1952 25.6904 43.7754 25.2043 43.8517 24.5601C44.0459 22.9064 44.048 21.2239 43.8612 19.5576ZM21.9996 34.6833C14.9947 34.6833 9.3164 29.005 9.3164 22.0002C9.3164 14.9955 14.9949 9.31723 21.9996 9.31723C29.0043 9.31723 34.6828 14.9955 34.6828 22.0002C34.6828 24.3779 34.0273 26.6017 32.8888 28.5034L27.3352 22.9496C27.7372 22.0016 27.9496 20.9739 27.9494 19.9132C27.9494 17.8363 27.1405 15.8838 25.6717 14.4153C24.2033 12.9469 22.2508 12.1382 20.1742 12.1382C19.4812 12.1382 18.7914 12.2303 18.1241 12.412C17.8318 12.4917 17.5928 12.7326 17.515 13.0255C17.4354 13.325 17.5251 13.6319 17.7591 13.8662C17.7591 13.8662 20.5009 16.6291 21.4183 17.5463C21.5144 17.6424 21.5142 17.8717 21.5007 17.9542L21.4921 18.0146C21.3996 19.0231 21.2213 20.2337 21.0743 20.6989C21.0545 20.7185 21.0358 20.7351 21.0156 20.7552C20.9945 20.7763 20.9751 20.7967 20.9548 20.8176C20.4834 20.9689 19.2542 21.1493 18.2297 21.241L18.2299 21.2355L18.1838 21.2471C18.1757 21.2481 18.1604 21.2492 18.1403 21.2492C18.0295 21.2492 17.8666 21.2182 17.7186 21.0703C16.7637 20.1155 14.1294 17.5 14.1294 17.5C13.8931 17.2645 13.6507 17.215 13.4891 17.215C13.1126 17.215 12.7754 17.4871 12.6692 17.8774C11.944 20.5609 12.7128 23.4476 14.6759 25.4109C16.1447 26.8795 18.0974 27.6882 20.1744 27.6882C21.235 27.6882 22.2628 27.4761 23.2106 27.074L28.8245 32.6879C26.8536 33.9492 24.5131 34.6833 21.9996 34.6833Z" fill="white"/>
</g>
<defs>
<clipPath id="clip0_1695_681">
<rect width="44" height="44" fill="white"/>
</clipPath>
</defs>
</svg>
