<svg width="32" height="42" viewBox="0 0 32 42" fill="none" xmlns="http://www.w3.org/2000/svg">
<path d="M23.3612 36.0938V36.5815C23.3618 37.2863 23.2177 37.9842 22.9372 38.6354C22.6567 39.2866 22.2453 39.8782 21.7266 40.3766C21.2078 40.8749 20.5919 41.2701 19.914 41.5395C19.2362 41.809 18.5097 41.9474 17.776 41.9469H13.7141C12.9805 41.9474 12.254 41.809 11.5761 41.5395C10.8982 41.2701 10.2823 40.8749 9.76358 40.3766C9.24484 39.8782 8.83346 39.2866 8.55297 38.6354C8.27247 37.9842 8.12837 37.2863 8.12891 36.5815V36.0938H23.3612Z" fill="white"/>
<path d="M21.838 34.1453H9.65214C9.24815 34.1453 8.86071 33.9912 8.57505 33.7167C8.28939 33.4423 8.12891 33.0701 8.12891 32.682C8.12891 32.294 8.28939 31.9218 8.57505 31.6473C8.86071 31.3729 9.24815 31.2188 9.65214 31.2188H21.838C22.242 31.2188 22.6294 31.3729 22.9151 31.6473C23.2007 31.9218 23.3612 32.294 23.3612 32.682C23.3612 33.0701 23.2007 33.4423 22.9151 33.7167C22.6294 33.9912 22.242 34.1453 21.838 34.1453Z" fill="white"/>
<path d="M24.888 34.1453H6.60917C6.20518 34.1453 5.81774 33.9912 5.53208 33.7167C5.24642 33.4423 5.08594 33.0701 5.08594 32.682C5.08594 32.294 5.24642 31.9218 5.53208 31.6473C5.81774 31.3729 6.20518 31.2188 6.60917 31.2188H24.888C25.2919 31.2188 25.6794 31.3729 25.965 31.6473C26.2507 31.9218 26.4112 32.294 26.4112 32.682C26.4112 33.0701 26.2507 33.4423 25.965 33.7167C25.6794 33.9912 25.2919 34.1453 24.888 34.1453Z" fill="white"/>
<path d="M15.7469 0C11.441 0.138594 7.36755 1.90994 4.41775 4.92648C1.46795 7.94302 -0.118014 11.9592 0.00685209 16.0962C-0.0167201 18.7084 0.610703 21.2882 1.83672 23.62C3.06273 25.9517 4.85175 27.9679 7.05434 29.4999C7.38508 29.7214 7.65552 30.0161 7.84286 30.359C8.0302 30.702 8.12894 31.0832 8.13076 31.4705V32.6801C8.13342 33.0674 8.29475 33.4382 8.57984 33.712C8.86493 33.9859 9.25082 34.1409 9.65399 34.1434H21.8398C22.243 34.1409 22.6289 33.9859 22.914 33.712C23.1991 33.4382 23.3604 33.0674 23.3631 32.6801V31.4705C23.3649 31.0832 23.4636 30.702 23.651 30.359C23.8383 30.0161 24.1088 29.7214 24.4395 29.4999C26.6421 27.9679 28.4311 25.9517 29.6571 23.62C30.8831 21.2882 31.5106 18.7084 31.487 16.0962C31.6118 11.9592 30.0259 7.94302 27.0761 4.92648C24.1263 1.90994 20.0528 0.138594 15.7469 0ZM20.8853 22.0079L19.687 23.159C19.0135 23.8019 18.1823 24.2716 17.2701 24.5247V28.778C17.2701 29.1661 17.1097 29.5383 16.824 29.8127C16.5383 30.0872 16.1509 30.2413 15.7469 30.2413C15.3429 30.2413 14.9555 30.0872 14.6698 29.8127C14.3842 29.5383 14.2237 29.1661 14.2237 28.778V24.5247C13.3115 24.2716 12.4804 23.8019 11.8068 23.159L10.6085 22.0079C10.3395 21.7305 10.193 21.3636 10.2 20.9845C10.2069 20.6054 10.3668 20.2437 10.6459 19.9756C10.925 19.7075 11.3015 19.554 11.6961 19.5473C12.0907 19.5406 12.4726 19.6813 12.7614 19.9398L13.9597 21.0909C14.4366 21.5408 15.0784 21.7929 15.7469 21.7929C16.4154 21.7929 17.0572 21.5408 17.5342 21.0909L18.7325 19.9398C19.0212 19.6813 19.4031 19.5406 19.7977 19.5473C20.1924 19.554 20.5689 19.7075 20.848 19.9756C21.127 20.2437 21.2869 20.6054 21.2939 20.9845C21.3008 21.3636 21.1544 21.7305 20.8853 22.0079Z" fill="white"/>
</svg>
