<svg width="81" height="105" viewBox="0 0 81 105" fill="none" xmlns="http://www.w3.org/2000/svg">
<path d="M2.17872 104.283H1.56641V96.9453H2.17872V104.283Z" fill="white"/>
<path d="M10.1476 99.2213V99.9795C10.3204 99.7232 10.5526 99.5121 10.8243 99.3642C11.0961 99.2162 11.3995 99.1358 11.709 99.1296C12.1191 99.1175 12.5189 99.2593 12.8295 99.5271C12.9929 99.6826 13.1174 99.8743 13.193 100.087C13.2685 100.299 13.2929 100.526 13.2642 100.75V104.272H12.7131V100.995C12.7593 100.642 12.6837 100.284 12.4988 99.9795C12.3898 99.8633 12.2564 99.7724 12.1083 99.7132C11.9602 99.654 11.8009 99.6281 11.6416 99.6371C11.4355 99.6331 11.2309 99.6723 11.041 99.7524C10.8511 99.8325 10.6803 99.9515 10.5394 100.102C10.3948 100.236 10.2826 100.402 10.2116 100.587C10.1405 100.771 10.1123 100.969 10.1292 101.166V104.272H9.57812V99.2091L10.1476 99.2213Z" fill="white"/>
<path d="M21.1859 103.492C21.1859 103.73 21.2532 103.785 21.5471 103.785H22.0125V104.28H21.4002C20.8491 104.28 20.6164 104.085 20.6164 103.59V99.7313H19.8633V99.2177H20.6348V97.5117H21.1859V99.2177H22.0125V99.7313H21.1859V103.492Z" fill="white"/>
<path d="M28.8137 101.986C28.8232 102.365 28.9446 102.733 29.1627 103.044C29.3296 103.299 29.5563 103.509 29.8231 103.656C30.09 103.803 30.3888 103.882 30.6935 103.888C31.0395 103.883 31.3784 103.789 31.6776 103.616C31.9768 103.442 32.2263 103.195 32.4018 102.897L32.855 103.136C32.6418 103.519 32.3277 103.836 31.9467 104.054C31.5657 104.272 31.1323 104.381 30.6935 104.371C30.3591 104.371 30.0282 104.304 29.721 104.172C29.4138 104.04 29.137 103.846 28.9075 103.603C28.6781 103.36 28.5008 103.073 28.3868 102.759C28.2727 102.445 28.2242 102.112 28.2443 101.778C28.221 101.444 28.2656 101.108 28.3754 100.792C28.4852 100.475 28.658 100.184 28.8833 99.9352C29.1086 99.6868 29.3818 99.4864 29.6866 99.346C29.9913 99.2056 30.3214 99.1282 30.6568 99.1183C30.9923 99.1084 31.3263 99.1663 31.6389 99.2884C31.9514 99.4106 32.236 99.5946 32.4756 99.8293C32.7152 100.064 32.9048 100.345 33.0331 100.654C33.1614 100.964 33.2258 101.296 33.2223 101.631C33.2223 101.699 33.2223 101.833 33.2223 101.986H28.8137ZM32.5917 101.442C32.5855 101.095 32.4838 100.757 32.2978 100.464C32.1167 100.208 31.8759 100 31.5964 99.8588C31.3169 99.7171 31.007 99.6455 30.6935 99.6504C30.3794 99.6439 30.0691 99.7202 29.794 99.8715C29.5188 100.023 29.2884 100.244 29.126 100.513C28.9629 100.796 28.8705 101.115 28.8566 101.442H32.5917Z" fill="white"/>
<path d="M40.5628 99.2207V100.132C40.6615 99.8703 40.826 99.6387 41.0404 99.4591C41.3366 99.2417 41.6953 99.1259 42.063 99.129H42.2834V99.6732H42.0997C41.9046 99.6664 41.7103 99.7023 41.5305 99.7784C41.3507 99.8544 41.1897 99.9688 41.0588 100.113C40.8747 100.32 40.7356 100.563 40.6502 100.826C40.5649 101.089 40.5351 101.367 40.5628 101.642V104.283H40.0117V99.2207H40.5628Z" fill="white"/>
<path d="M49.532 97.8065C49.5319 97.8889 49.5074 97.9696 49.4613 98.0381C49.4153 98.1066 49.3499 98.1599 49.2735 98.1911C49.197 98.2224 49.113 98.2303 49.0321 98.2137C48.9512 98.1972 48.877 98.157 48.819 98.0982C48.761 98.0395 48.7219 97.9648 48.7065 97.8838C48.6911 97.8027 48.7002 97.7189 48.7327 97.6431C48.7652 97.5672 48.8195 97.5027 48.8887 97.4577C48.958 97.4128 49.0391 97.3895 49.1217 97.3907C49.1761 97.3907 49.23 97.4015 49.2801 97.4224C49.3303 97.4434 49.3758 97.4741 49.414 97.5128C49.4522 97.5515 49.4823 97.5974 49.5025 97.6478C49.5228 97.6982 49.5328 97.7521 49.532 97.8065ZM49.385 104.282H48.8339V99.2189H49.385V104.282Z" fill="white"/>
<path d="M60.6958 100.022C61.0872 100.511 61.2874 101.126 61.2591 101.752C61.2798 102.275 61.1372 102.791 60.8511 103.228C60.565 103.666 60.1496 104.004 59.6624 104.196C59.1752 104.387 58.6404 104.423 58.1322 104.297C57.6239 104.172 57.1675 103.891 56.826 103.495C56.4439 102.987 56.2493 102.363 56.2749 101.728C56.2514 101.375 56.305 101.021 56.4318 100.69C56.5587 100.36 56.7559 100.061 57.0097 99.8138C57.4912 99.3697 58.1238 99.1249 58.7793 99.129C59.1452 99.1254 59.5073 99.2037 59.839 99.3582C60.1706 99.5127 60.4634 99.7394 60.6958 100.022ZM56.8444 101.764C56.8136 102.035 56.8414 102.31 56.9259 102.569C57.0104 102.829 57.1497 103.067 57.3342 103.268C57.5187 103.469 57.7443 103.628 57.9957 103.735C58.2471 103.842 58.5185 103.893 58.7915 103.886C59.0604 103.881 59.3254 103.821 59.5698 103.709C59.8142 103.597 60.0327 103.436 60.2116 103.236C60.3905 103.035 60.5259 102.8 60.6092 102.544C60.6926 102.289 60.722 102.019 60.6958 101.752C60.7144 101.466 60.6728 101.178 60.5736 100.909C60.4745 100.639 60.3201 100.393 60.1202 100.187C59.761 99.8468 59.2864 99.6546 58.7915 99.6488C58.5216 99.6474 58.2545 99.7027 58.0075 99.8112C57.7605 99.9197 57.5391 100.079 57.3577 100.278C57.1764 100.478 57.0391 100.713 56.9549 100.969C56.8707 101.225 56.8413 101.496 56.8688 101.764H56.8444Z" fill="white"/>
<path d="M68.719 99.2188V100.13C68.8271 99.8233 69.0316 99.56 69.302 99.3792C69.5725 99.1984 69.8942 99.11 70.2192 99.1271H70.4396V99.6713H70.2559C70.0618 99.6655 69.8688 99.7018 69.6901 99.7778C69.5114 99.8538 69.3514 99.9677 69.2211 100.112C69.035 100.317 68.8942 100.559 68.8077 100.823C68.7212 101.086 68.691 101.364 68.719 101.64V104.282H68.168V99.2188H68.719Z" fill="white"/>
<path d="M79.4737 100.553C79.4737 99.9411 79.0573 99.6354 78.3409 99.6354C77.6245 99.6354 77.2265 99.9656 77.2265 100.485C77.2265 101.005 77.4898 101.225 78.4512 101.451C78.926 101.522 79.3681 101.735 79.7186 102.063C79.9704 102.317 80.1131 102.659 80.1166 103.017C80.1166 103.848 79.4308 104.392 78.3838 104.392C77.3368 104.392 76.6755 103.903 76.5469 102.901H77.1102C77.1531 103.512 77.6307 103.903 78.3899 103.903C79.1492 103.903 79.5288 103.549 79.5288 103.017C79.5288 102.485 79.1859 102.24 78.2552 102.02C77.8283 101.952 77.4269 101.773 77.0918 101.5C76.9558 101.38 76.8468 101.232 76.7719 101.067C76.6969 100.901 76.6578 100.722 76.6571 100.54C76.6571 99.7149 77.3551 99.1523 78.3593 99.1523C79.3635 99.1523 80.0125 99.6843 80.0554 100.577L79.4737 100.553Z" fill="white"/>
<path d="M13.4055 89.9215C12.6973 90.6489 11.8457 91.2217 10.9045 91.6037C9.96338 91.9857 8.95313 92.1687 7.93757 92.1411C6.95198 92.1816 5.96949 92.0055 5.05956 91.6251C4.14964 91.2448 3.33448 90.6695 2.67172 89.9399C1.37529 88.4456 0.669821 86.53 0.687837 84.553C0.687837 80.0833 3.74938 76.8915 7.98043 76.8915C9.02245 76.8533 10.0603 77.0425 11.0216 77.4459C11.9828 77.8493 12.8445 78.4572 13.5463 79.2273L11.5808 81.2023C11.138 80.7341 10.6061 80.3589 10.0163 80.0985C9.42643 79.8381 8.79053 79.6979 8.14576 79.6859C5.58631 79.6859 3.74938 81.667 3.74938 84.4858C3.74938 87.3045 5.64754 89.3468 8.29271 89.3468C8.91782 89.3669 9.53917 89.2428 10.1084 88.984C10.6776 88.7253 11.1794 88.3388 11.5747 87.8548L13.4055 89.9215Z" fill="white"/>
<path d="M18.0583 81.6624V83.1605C18.1975 82.6184 18.5143 82.1384 18.9584 81.797C19.4469 81.4701 20.0236 81.2995 20.6116 81.3078C20.7216 81.2984 20.8322 81.2984 20.9423 81.3078V84.1694C20.7218 84.1694 20.5014 84.1266 20.3299 84.1266C19.9663 84.1185 19.606 84.1982 19.2798 84.359C18.9536 84.5197 18.6711 84.7567 18.4563 85.0499C18.1053 85.6068 17.9582 86.2679 18.0399 86.9209V91.8125H15.2539V81.6624H18.0583Z" fill="white"/>
<path d="M24.8444 87.4325C24.9333 87.9834 25.1897 88.4937 25.5787 88.8942C25.9678 89.2947 26.4708 89.5661 27.0195 89.6715C27.5682 89.777 28.1361 89.7114 28.6463 89.4837C29.1564 89.256 29.5841 88.8772 29.8714 88.3986L32.4493 89.1079C32.0076 90.0454 31.3051 90.8361 30.4256 91.3858C29.5462 91.9355 28.527 92.2209 27.4896 92.208C26.7601 92.2419 26.0314 92.1252 25.3491 91.865C24.6669 91.6049 24.0457 91.2071 23.5245 90.6963C23.0032 90.1855 22.5931 89.5729 22.3198 88.8966C22.0464 88.2204 21.9158 87.4951 21.9359 86.7661C21.9007 86.0478 22.0152 85.3301 22.2723 84.6584C22.5294 83.9867 22.9235 83.3757 23.4295 82.8641C23.9355 82.3524 24.5425 81.9514 25.2119 81.6863C25.8812 81.4212 26.5985 81.2979 27.3181 81.3242C28.0551 81.2961 28.7899 81.4215 29.4757 81.6924C30.1615 81.9633 30.7834 82.3737 31.3017 82.8977C31.82 83.4216 32.2235 84.0475 32.4864 84.7356C32.7493 85.4237 32.866 86.1589 32.8289 86.8945V87.4448L24.8444 87.4325ZM29.9572 85.8244C29.8832 85.2017 29.5726 84.6312 29.0894 84.2306C28.6063 83.8301 27.9875 83.6301 27.361 83.6721C26.7478 83.6509 26.1489 83.8603 25.6829 84.2588C25.2169 84.6574 24.9176 85.2161 24.8444 85.8244H29.9572Z" fill="white"/>
<path d="M42.6764 81.6686H45.4747V91.8615H42.6764V90.4368C42.2762 91.0005 41.7424 91.4563 41.1226 91.7636C40.5029 92.0709 39.8166 92.2201 39.125 92.1978C36.2594 92.1978 34.2266 89.9782 34.2266 86.8721C34.2266 83.662 36.388 81.3018 39.3638 81.3018C40.0114 81.2874 40.6527 81.4302 41.2329 81.7177C41.813 82.0052 42.3147 82.429 42.6948 82.9527L42.6764 81.6686ZM37.2085 86.8415C37.2085 88.6269 38.378 89.966 39.8965 89.966C41.4151 89.966 42.7193 88.5108 42.7193 86.7559C42.7193 85.001 41.5743 83.6986 39.921 83.6986C38.2678 83.6986 37.2085 84.9705 37.2085 86.8415Z" fill="white"/>
<path d="M51.2736 88.8634C51.2736 89.3464 51.494 89.5237 52.0635 89.5237H52.5472V91.8595H50.3245C49.0019 91.8595 48.4876 91.2847 48.4876 89.9212V83.9779H47.3242V81.6238H48.4447V78.8906H51.2491V81.6238H52.5472V83.9779H51.2736V88.8634Z" fill="white"/>
<path d="M57.6301 78.8187C57.6301 79.2306 57.4662 79.6256 57.1745 79.9169C56.8829 80.2082 56.4873 80.3718 56.0748 80.3718C55.6623 80.3718 55.2667 80.2082 54.9751 79.9169C54.6834 79.6256 54.5195 79.2306 54.5195 78.8187C54.5195 78.4068 54.6834 78.0118 54.9751 77.7205C55.2667 77.4293 55.6623 77.2656 56.0748 77.2656C56.4873 77.2656 56.8829 77.4293 57.1745 77.7205C57.4662 78.0118 57.6301 78.4068 57.6301 78.8187ZM57.477 91.8915H54.642V81.6681H57.4464L57.477 91.8915Z" fill="white"/>
<path d="M69.0837 81.6641L65.3608 91.8569H62.4707L58.7969 81.6641H61.7053L63.9525 87.7358L66.2242 81.6641H69.0837Z" fill="white"/>
<path d="M72.4853 87.4328C72.5742 87.9837 72.8306 88.494 73.2197 88.8945C73.6088 89.295 74.1117 89.5663 74.6605 89.6718C75.2092 89.7772 75.7771 89.7117 76.2872 89.484C76.7974 89.2563 77.2251 88.8775 77.5124 88.3989L80.0902 89.1082C79.6473 90.0447 78.9445 90.8346 78.0654 91.3841C77.1862 91.9336 76.1676 92.2196 75.1305 92.2082C74.401 92.2421 73.6723 92.1254 72.9901 91.8653C72.3078 91.6052 71.6867 91.2073 71.1654 90.6966C70.6441 90.1858 70.234 89.5731 69.9607 88.8969C69.6874 88.2206 69.5567 87.4953 69.5769 86.7663C69.5407 86.0484 69.6545 85.3308 69.9109 84.6591C70.1673 83.9874 70.5607 83.3763 71.0663 82.8646C71.5718 82.3529 72.1784 81.9517 72.8475 81.6865C73.5166 81.4214 74.2336 81.2981 74.9529 81.3244C75.6902 81.2954 76.4253 81.4202 77.1116 81.6907C77.7978 81.9613 78.4201 82.3717 78.9386 82.8958C79.4571 83.42 79.8606 84.0463 80.1231 84.7348C80.3857 85.4233 80.5017 86.1589 80.4637 86.8947V87.445L72.4853 87.4328ZM77.5981 85.8247C77.5144 85.2051 77.2002 84.6397 76.718 84.2409C76.2358 83.8421 75.621 83.6391 74.9958 83.6724C74.3815 83.644 73.7795 83.851 73.3128 84.2511C72.8462 84.6511 72.5502 85.214 72.4853 85.8247H77.5981Z" fill="white"/>
<path d="M30.1456 23.8125L51.6376 24.1671L56.3708 40.6579L40.7569 39.1599L24.543 41.0309L30.1456 23.8125Z" stroke="white" stroke-width="1.73456" stroke-linecap="round" stroke-linejoin="round"/>
<path d="M31.1719 43.3508V40.3791L40.3565 39.1562V68.4202" stroke="white" stroke-width="1.73456" stroke-linecap="round" stroke-linejoin="round"/>
<path d="M40.656 68.4214C59.0862 68.4214 74.0268 53.5018 74.0268 35.0974C74.0268 16.6931 59.0862 1.77344 40.656 1.77344C22.2258 1.77344 7.28516 16.6931 7.28516 35.0974C7.28516 53.5018 22.2258 68.4214 40.656 68.4214Z" stroke="white" stroke-width="1.73456" stroke-linecap="round" stroke-linejoin="round"/>
</svg>
