<svg width="44" height="44" viewBox="0 0 44 44" fill="none" xmlns="http://www.w3.org/2000/svg">
<g clip-path="url(#clip0_1695_716)">
<path d="M41.3725 28.6079C39.1091 26.3428 35.9686 25.3833 31.9353 26.4642L17.5529 12.0672L17.743 11.3485C18.5714 8.24044 17.6763 4.89962 15.4079 2.63121C13.0983 0.319753 9.81477 -0.528364 6.70942 0.324652C6.26658 0.446253 5.92188 0.794214 5.80458 1.23825C5.68727 1.68229 5.81592 2.15426 6.14051 2.47902L9.60353 5.94204C10.616 6.95696 10.6061 8.58239 9.60602 9.5851C8.61388 10.5799 6.94617 10.5784 5.95798 9.5876L2.49427 6.12363C2.16951 5.7987 1.69617 5.67125 1.25213 5.78925C0.808002 5.90715 0.46133 6.25271 0.340158 6.69597C-0.500397 9.76721 0.326494 13.0711 2.64724 15.3918C4.90963 17.6558 8.04626 18.6189 12.082 17.5356L26.4654 31.9326C25.3921 35.9647 26.3179 39.0748 28.6117 41.3686C30.9243 43.6829 34.2093 44.5247 37.3079 43.6745C37.7508 43.553 38.0956 43.205 38.213 42.7609C38.3304 42.3169 38.2018 41.8448 37.8771 41.52L34.4148 38.0577C33.4024 37.0428 33.4123 35.4172 34.4123 34.4147C35.4168 33.4153 37.0808 33.4312 38.0604 34.4134L41.5243 37.8764C41.8491 38.2012 42.3224 38.3286 42.7664 38.2106C43.2104 38.0926 43.5571 37.7473 43.6783 37.3041C44.5188 34.2334 43.6921 30.9286 41.3725 28.6079Z" fill="white"/>
<path d="M13.7966 22.9102L1.50827 35.2001C-0.502756 37.2111 -0.502756 40.4814 1.50827 42.4923C3.51929 44.5033 6.78956 44.5033 8.80049 42.4923L21.0886 30.2027L13.7966 22.9102ZM7.58946 38.4918C7.08587 38.9954 6.27032 38.9954 5.76673 38.4918C5.26322 37.9883 5.26322 37.1726 5.76673 36.6691L13.5853 28.849C14.0888 28.3455 14.9046 28.3455 15.4081 28.849C15.9116 29.3525 15.9116 30.1683 15.4081 30.6718L7.58946 38.4918Z" fill="white"/>
<path d="M43.6206 2.59988L41.3983 0.377622C40.9801 -0.0406356 40.331 -0.120557 39.8238 0.183575L32.9877 4.28477C32.2684 4.71626 32.1463 5.70858 32.7393 6.30164L33.2834 6.84562L24.6055 15.4881L28.2522 19.1349L36.9302 10.4924L37.6967 11.259C38.2897 11.8519 39.2821 11.7299 39.7135 11.0106L43.8147 4.17451C44.1188 3.66722 44.0389 3.01814 43.6206 2.59988Z" fill="white"/>
</g>
<defs>
<clipPath id="clip0_1695_716">
<rect width="44" height="44" fill="white"/>
</clipPath>
</defs>
</svg>
