<svg width="27" height="34" viewBox="0 0 27 34" fill="none" xmlns="http://www.w3.org/2000/svg">
<path d="M22.6141 12.2498H15.5982C14.9847 12.2498 14.6774 11.8405 14.5742 11.6642C14.471 11.4891 14.2622 11.0217 14.5591 10.486L17.0327 6.03169C17.5754 5.05641 17.631 3.9095 17.1869 2.8855C16.7427 1.86036 15.866 1.11701 14.7817 0.846809L13.0376 0.410773C12.6131 0.304084 12.1632 0.439765 11.8675 0.767952L2.39764 11.2885C1.41541 12.382 0.875 13.7922 0.875 15.2603V27.6873C0.875 30.9611 3.53875 33.6248 6.8125 33.6248L18.626 33.6237C21.2933 33.6237 23.6486 31.8273 24.3525 29.2563L26.8875 17.6225C26.9617 17.299 27 16.9673 27 16.6357C27 14.2178 25.032 12.2498 22.6141 12.2498Z" fill="white"/>
</svg>
