<svg width="14" height="14" viewBox="0 0 14 14" fill="none" xmlns="http://www.w3.org/2000/svg">
<path d="M10.2991 8.32455L9.21102 8.93606C9.08045 9.0094 8.9294 9.03808 8.78095 9.01774C8.6325 8.9974 8.4948 8.92915 8.38887 8.82342L4.75737 5.20052C4.65145 5.0948 4.5831 4.95743 4.56271 4.80935C4.54232 4.66127 4.57103 4.51061 4.64445 4.38032L5.25742 3.29485C5.36776 3.09949 5.41096 2.87346 5.38042 2.6513C5.34988 2.42914 5.24729 2.22306 5.08831 2.06455L3.45754 0.437642C3.36196 0.342241 3.24847 0.266561 3.12356 0.214928C2.99866 0.163295 2.86478 0.136719 2.72957 0.136719C2.59437 0.136719 2.46049 0.163295 2.33558 0.214928C2.21067 0.266561 2.09719 0.342241 2.0016 0.437642L1.26115 1.17582C0.828155 1.60778 0.552345 2.17176 0.477577 2.77808C0.402809 3.3844 0.533375 3.99826 0.848514 4.52203L1.22004 5.13978C3.11735 8.2944 5.79535 10.9097 8.99716 12.7349L9.07053 12.777C10.1643 13.4004 11.5156 13.2188 12.3914 12.3456L13.1646 11.5742C13.2603 11.4788 13.3361 11.3656 13.3879 11.241C13.4396 11.1164 13.4663 10.9828 13.4663 10.848C13.4663 10.7131 13.4396 10.5795 13.3879 10.4549C13.3361 10.3303 13.2603 10.2171 13.1646 10.1217L11.5328 8.49378C11.3739 8.33497 11.1673 8.23245 10.9445 8.20189C10.7217 8.17133 10.495 8.21441 10.2991 8.32455Z" fill="#8A8A8A"/>
</svg>
