<svg width="22" height="23" viewBox="0 0 22 23" fill="none" xmlns="http://www.w3.org/2000/svg">
<path d="M11.0674 0.535156C5.32889 0.535156 0.660156 5.39834 0.660156 11.376C0.660156 17.3538 5.32889 22.2172 11.0674 22.2172C16.8062 22.2172 21.4749 17.3538 21.4749 11.376C21.4747 5.39834 16.806 0.535156 11.0674 0.535156ZM16.6064 8.54859C16.3305 8.97903 15.9873 9.35834 15.5912 9.6708C15.5928 9.7337 15.5939 9.79661 15.5939 9.85951C15.5939 13.021 13.2845 16.291 9.41957 16.291C8.24013 16.2916 7.08536 15.9393 6.09259 15.2761C6.05719 15.2525 6.03052 15.2172 6.01695 15.1758C6.00338 15.1344 6.00371 15.0894 6.01789 15.0482C6.03168 15.0068 6.05868 14.9716 6.09439 14.9484C6.1301 14.9253 6.17235 14.9155 6.21411 14.9209C6.37706 14.9404 6.53854 14.9501 6.69425 14.9501C7.45236 14.9501 8.17481 14.7378 8.80899 14.3321C8.42705 14.2361 8.07527 14.0392 7.78752 13.7606C7.49977 13.4819 7.28574 13.1307 7.16603 12.7409C7.15623 12.7089 7.15457 12.6748 7.16121 12.6419C7.16786 12.6091 7.18258 12.5785 7.20393 12.5534C7.22529 12.5281 7.25263 12.5092 7.28321 12.4984C7.3138 12.4877 7.34656 12.4855 7.37822 12.492C7.41316 12.499 7.44828 12.505 7.48321 12.51C6.83788 12.0817 6.41924 11.3286 6.41924 10.4947V10.4671C6.41926 10.4334 6.42772 10.4003 6.44378 10.3711C6.45983 10.3418 6.48294 10.3175 6.51081 10.3004C6.53868 10.2833 6.57034 10.2741 6.60268 10.2736C6.63501 10.2732 6.6669 10.2816 6.69518 10.2979C6.77601 10.3446 6.85981 10.385 6.94584 10.4191C6.61563 9.99397 6.43575 9.46355 6.43634 8.91672C6.43634 8.49517 6.54355 8.08019 6.74627 7.71689C6.76136 7.68981 6.78253 7.66695 6.80797 7.65026C6.8334 7.63357 6.86234 7.62356 6.89231 7.62109C6.92227 7.61861 6.95237 7.62375 6.98001 7.63605C7.00765 7.64836 7.03201 7.66746 7.05101 7.69173C8.03935 8.95408 9.47605 9.74822 11.0215 9.89455C11.0105 9.79864 11.005 9.70215 11.0051 9.60557C11.0051 8.29 12.0328 7.21966 13.296 7.21966C13.8919 7.21966 14.4685 7.4645 14.8938 7.89458C15.3095 7.79818 15.7078 7.63361 16.0739 7.40702C16.083 7.37715 16.099 7.35005 16.1204 7.32803C16.1418 7.30601 16.168 7.28973 16.1968 7.28061C16.2256 7.27148 16.2561 7.26977 16.2857 7.27562C16.3152 7.28147 16.343 7.29472 16.3665 7.31421C16.3901 7.33371 16.4088 7.35887 16.4209 7.38754C16.4331 7.41621 16.4384 7.44753 16.4363 7.4788C16.4343 7.51007 16.425 7.54036 16.4093 7.56707C16.3935 7.59377 16.3718 7.6161 16.3459 7.63212C16.2549 7.92927 16.1084 8.20475 15.9148 8.44271C16.0723 8.39317 16.2266 8.33344 16.377 8.26387C16.4138 8.24694 16.4549 8.24291 16.4941 8.2524C16.5333 8.26188 16.5685 8.28437 16.5943 8.31647C16.6202 8.34858 16.6354 8.38857 16.6376 8.43043C16.6397 8.47228 16.6288 8.51375 16.6064 8.54859Z" fill="#8A8A8A"/>
</svg>
