<svg width="23" height="22" viewBox="0 0 23 22" fill="none" xmlns="http://www.w3.org/2000/svg">
<path d="M15.6133 8.21737C15.534 7.98918 15.4125 7.78197 15.2568 7.6091C15.101 7.43622 14.9144 7.30151 14.709 7.21365C14.4261 7.09723 14.1273 7.03569 13.8256 7.03173C13.3239 7.00635 13.1736 7 11.9028 7C10.632 7 10.4816 7.00635 9.97994 7.03173C9.67796 7.03557 9.37883 7.09711 9.09563 7.21365C8.89026 7.30175 8.70377 7.43668 8.54819 7.60974C8.3926 7.78279 8.27136 7.99014 8.19228 8.21843C8.0875 8.53276 8.03212 8.86476 8.02856 9.19994C8.00571 9.75732 8 9.92443 8 11.3364C8 12.7484 8.00571 12.9155 8.02856 13.4729C8.03201 13.8084 8.0874 14.1408 8.19228 14.4555C8.27158 14.6836 8.39301 14.8909 8.54876 15.0637C8.70451 15.2366 8.89113 15.3713 9.09658 15.4592C9.37948 15.5756 9.67828 15.6371 9.97994 15.6411C10.4816 15.6665 10.632 15.6728 11.9028 15.6728C13.1736 15.6728 13.3239 15.6665 13.8256 15.6411C14.1276 15.6373 14.4267 15.5757 14.7099 15.4592C14.9153 15.3711 15.1018 15.2361 15.2574 15.0631C15.4129 14.89 15.5342 14.6827 15.6133 14.4544C15.718 14.1401 15.7734 13.8081 15.777 13.4729C15.7998 12.9155 15.8055 12.7484 15.8055 11.3364C15.8055 9.92443 15.7998 9.75732 15.777 9.19994C15.7735 8.8644 15.7181 8.53203 15.6133 8.21737ZM11.9028 14.0525C11.4193 14.0525 10.9467 13.8932 10.5447 13.5947C10.1427 13.2963 9.82939 12.8721 9.64438 12.3758C9.45936 11.8795 9.41095 11.3334 9.50527 10.8065C9.59959 10.2797 9.83241 9.79571 10.1743 9.41586C10.5161 9.03601 10.9517 8.77733 11.4259 8.67253C11.9001 8.56773 12.3916 8.62151 12.8382 8.82709C13.2849 9.03266 13.6667 9.38079 13.9353 9.82744C14.2039 10.2741 14.3472 10.7992 14.3472 11.3364C14.3472 12.0568 14.0897 12.7476 13.6313 13.257C13.1728 13.7663 12.5511 14.0525 11.9028 14.0525ZM14.4434 9.14811C14.3304 9.14811 14.22 9.11089 14.1261 9.04116C14.0321 8.97143 13.9589 8.87232 13.9157 8.75636C13.8725 8.64041 13.8612 8.51281 13.8832 8.38971C13.9053 8.26661 13.9596 8.15354 14.0395 8.06479C14.1194 7.97604 14.2212 7.9156 14.332 7.89111C14.4427 7.86662 14.5576 7.87919 14.6619 7.92722C14.7663 7.97525 14.8555 8.05659 14.9183 8.16095C14.981 8.26531 15.0145 8.388 15.0145 8.51351C15.0145 8.68182 14.9543 8.84323 14.8472 8.96224C14.7401 9.08125 14.5949 9.14811 14.4434 9.14811Z" fill="#8A8A8A"/>
<path d="M11.9026 13.0707C13.1 13.0707 14.0708 12.2941 14.0708 11.3361C14.0708 10.3782 13.1 9.60156 11.9026 9.60156C10.7051 9.60156 9.73438 10.3782 9.73438 11.3361C9.73438 12.2941 10.7051 13.0707 11.9026 13.0707Z" fill="#8A8A8A"/>
<path d="M11.677 0.800781C9.53282 0.800781 7.43681 1.41116 5.65402 2.55474C3.87122 3.69832 2.4817 5.32373 1.66117 7.22543C0.840635 9.12713 0.625946 11.2197 1.04425 13.2385C1.46255 15.2574 2.49506 17.1118 4.0112 18.5673C5.52735 20.0228 7.45903 21.014 9.56199 21.4156C11.6649 21.8171 13.8447 21.611 15.8256 20.8233C17.8066 20.0356 19.4997 18.7017 20.6909 16.9902C21.8822 15.2787 22.518 13.2666 22.518 11.2082C22.518 8.44796 21.3758 5.8008 19.3427 3.84903C17.3096 1.89727 14.5522 0.800781 11.677 0.800781ZM17.2895 13.4436C17.2798 13.893 17.1908 14.3377 17.0263 14.7586C16.8813 15.1186 16.6595 15.4456 16.3752 15.7185C16.0909 15.9914 15.7503 16.2043 15.3753 16.3436C14.9369 16.5014 14.4737 16.5869 14.0055 16.5962C13.4025 16.6222 13.2105 16.6287 11.677 16.6287C10.1434 16.6287 9.95144 16.6222 9.34841 16.5962C8.88022 16.5869 8.41706 16.5014 7.9786 16.3436C7.60359 16.2043 7.26302 15.9914 6.97871 15.7185C6.6944 15.4456 6.47263 15.1186 6.3276 14.7586C6.16313 14.3377 6.07417 13.893 6.06448 13.4436C6.03738 12.8647 6.0306 12.6804 6.0306 11.2082C6.0306 9.73595 6.03738 9.55166 6.06448 8.97274C6.07417 8.52328 6.16313 8.07865 6.3276 7.65773C6.47263 7.29772 6.6944 6.97077 6.97871 6.69784C7.26302 6.4249 7.60359 6.212 7.9786 6.07277C8.41706 5.91488 8.88022 5.82948 9.34841 5.82018C9.95144 5.79416 10.1434 5.78765 11.677 5.78765C13.2105 5.78765 13.4025 5.79416 14.0055 5.82018C14.4737 5.82948 14.9369 5.91488 15.3753 6.07277C15.7503 6.212 16.0909 6.4249 16.3752 6.69784C16.6595 6.97077 16.8813 7.29772 17.0263 7.65773C17.1908 8.07865 17.2798 8.52328 17.2895 8.97274C17.3166 9.55166 17.3233 9.73595 17.3233 11.2082C17.3233 12.6804 17.3166 12.8647 17.2895 13.4436Z" fill="#8A8A8A"/>
</svg>
