<svg width="11" height="11" viewBox="0 0 11 11" fill="none" xmlns="http://www.w3.org/2000/svg">
<path d="M9.30233 0.296875H2.01797C1.60398 0.296875 1.20695 0.46133 0.914219 0.754063C0.621487 1.04679 0.457031 1.44382 0.457031 1.85781V9.66249C0.45719 9.75469 0.481844 9.84519 0.52847 9.92472C0.575096 10.0043 0.64202 10.07 0.72239 10.1152C0.800154 10.1592 0.88796 10.1825 0.977343 10.1828C1.07073 10.1828 1.16239 10.1576 1.2427 10.11L3.5789 8.69471C3.66526 8.6433 3.76465 8.618 3.86507 8.62187H9.30233C9.71632 8.62187 10.1134 8.45741 10.4061 8.16468C10.6988 7.87195 10.8633 7.47492 10.8633 7.06093V1.85781C10.8633 1.44382 10.6988 1.04679 10.4061 0.754063C10.1134 0.46133 9.71632 0.296875 9.30233 0.296875ZM3.5789 4.97968C3.476 4.97968 3.3754 4.94917 3.28983 4.89199C3.20427 4.83482 3.13758 4.75356 3.0982 4.65848C3.05882 4.56341 3.04851 4.45879 3.06859 4.35786C3.08867 4.25693 3.13822 4.16422 3.21099 4.09145C3.28375 4.01869 3.37646 3.96913 3.4774 3.94906C3.57833 3.92898 3.68294 3.93928 3.77802 3.97866C3.87309 4.01805 3.95435 4.08474 4.01153 4.1703C4.0687 4.25587 4.09922 4.35646 4.09922 4.45937C4.09922 4.59737 4.0444 4.72971 3.94682 4.82729C3.84924 4.92486 3.7169 4.97968 3.5789 4.97968ZM5.66015 4.97968C5.55724 4.97968 5.45665 4.94917 5.37108 4.89199C5.28552 4.83482 5.21883 4.75356 5.17945 4.65848C5.14006 4.56341 5.12976 4.45879 5.14984 4.35786C5.16991 4.25693 5.21947 4.16422 5.29223 4.09145C5.365 4.01869 5.45771 3.96913 5.55864 3.94906C5.65957 3.92898 5.76419 3.93928 5.85927 3.97866C5.95434 4.01805 6.0356 4.08474 6.09277 4.1703C6.14995 4.25587 6.18046 4.35646 6.18046 4.45937C6.18046 4.59737 6.12564 4.72971 6.02807 4.82729C5.93049 4.92486 5.79815 4.97968 5.66015 4.97968ZM7.7414 4.97968C7.63849 4.97968 7.53789 4.94917 7.45233 4.89199C7.36676 4.83482 7.30007 4.75356 7.26069 4.65848C7.22131 4.56341 7.21101 4.45879 7.23108 4.35786C7.25116 4.25693 7.30072 4.16422 7.37348 4.09145C7.44625 4.01869 7.53896 3.96913 7.63989 3.94906C7.74082 3.92898 7.84544 3.93928 7.94051 3.97866C8.03559 4.01805 8.11685 4.08474 8.17402 4.1703C8.2312 4.25587 8.26171 4.35646 8.26171 4.45937C8.26171 4.59737 8.20689 4.72971 8.10931 4.82729C8.01174 4.92486 7.87939 4.97968 7.7414 4.97968Z" fill="#8A8A8A"/>
</svg>
