<svg xmlns="http://www.w3.org/2000/svg" viewBox="0 0 891.81 382.42"><defs><style>.cls-1{fill:#fff;}</style></defs><g id="Layer_2" data-name="Layer 2"><g id="Layer_1-2" data-name="Layer 1"><path class="cls-1" d="M293.39,126.36c10.48-27.81,29.08-49.17,51.46-68.66L202.27,117.23l-.63-1.32c1.29-.74,2.55-1.57,3.89-2.21Q323.16,57.39,440.8,1.05a8.66,8.66,0,0,1,8.28,0q55.2,26,110.52,51.84c1.6.74,3.24,1.37,5.68,2.4V1.53h8.52V6.84c0,16.25.13,32.5,0,48.75,0,3.39,1,5.2,4.11,6.74q52.67,25.61,105.2,51.51a13.5,13.5,0,0,1,3.92,2.65c-48.32-18-96.14-37.11-142.82-59.24,22.2,19.45,40.73,41.41,51.31,69.32-4.68,3.34-6,.11-7.62-3.14-25.52-49.52-65.15-80.78-120.56-89.07C397.86,24,331.52,60.25,300.79,123.66,299.15,127.05,297.56,128.82,293.39,126.36Zm188.2-99.21c-7.06-3.35-14.58-6-21.06-10.2-10.77-7-20.54-7.3-31.39,0-6.54,4.37-14.3,6.93-21.52,10.3A201,201,0,0,1,481.59,27.15Z"/><path class="cls-1" d="M154.53,254.24H143V143.45c3.45,0,6.84-.06,10.24,0,15.09.28,30.25-.2,45.24,1.15,13.53,1.22,23.13,9.17,26.93,22.58,3.67,13,2.52,25.54-8.26,34.81-5.11,4.4-12.05,6.67-18.65,10.16l29.34,42.21c-4.76,0-8.5.26-12.16-.14-1.27-.14-2.64-1.73-3.49-3-7.86-11.53-15.8-23-23.3-34.77-2.35-3.69-4.9-5-9.16-4.83-8.18.33-16.38.1-25.2.1Zm-.06-53.91c14.9,0,29.32.66,43.64-.24,9-.56,15.2-6.38,17.48-15.61,3.9-15.78-6.07-29.48-22.69-30.35-11.29-.58-22.63-.27-34-.32-1.41,0-2.83.21-4.48.34Z"/><path class="cls-1" d="M806.76,143.77h78.91v9.94h-67.2v40.07c2,.09,3.78.24,5.54.24q27.09,0,54.17,0c6.91,0,6.92,0,6.62,7,0,1-.26,1.89-.46,3.29H818.51V244h67.92v9.74H806.76Z"/><path class="cls-1" d="M344.54,153.64H278.3v40.44h65v10.33H278.38V244h66.48v9.82H267.32V143.88h77.22Z"/><path class="cls-1" d="M375.78,254.26a36.9,36.9,0,0,1,1.27-3.91q23.82-51.85,47.65-103.71c1.09-2.37,2.4-4.09,5.09-3.3,1.77.52,4.21,1.38,4.85,2.78Q459,198.83,482.9,251.72a13.86,13.86,0,0,1,.55,1.8c-8.87,2.68-11.2,1.64-14.75-6.39-2.52-5.7-5.21-11.33-7.62-17.07-1.16-2.77-2.76-4-5.91-3.95q-26.09.25-52.18.09c-2.8,0-4.06,1.09-5.08,3.49-2.7,6.34-6,12.45-8.34,18.9-1.78,4.84-4.59,6.74-9.55,5.89A36.26,36.26,0,0,0,375.78,254.26Zm78.83-38.43c-8.41-18.63-16.44-36.44-24.9-55.19-8.59,18.83-16.77,36.76-25.17,55.19Z"/><path class="cls-1" d="M104.65,162.41c-2.46,2.91-4.66,5.52-7.3,8.63-12.72-15-28.57-19.86-46.81-17.65-11.25,1.37-20.49,6.82-27.72,15.45C7.36,187.27,9.29,216.72,26.27,233.5,40.36,247.43,76,253.7,97,227.13l7.72,6.55c-10.8,17.43-37.94,26.44-61.37,20.69-23.68-5.82-40.14-25.57-41.75-50.1-1.71-26.17,11.49-48.33,34.32-57.58C59.88,137,89.13,143.69,104.65,162.41Z"/><path class="cls-1" d="M669.77,143.58c4.13,0,7.59-.4,10.88.18,1.37.25,2.84,2.36,3.5,4q17,40.65,33.68,81.4c.74,1.79,1.55,3.55,2.66,6.07,1-1.93,1.68-3.16,2.23-4.45,11.62-27,23.36-53.89,34.7-81,2-4.83,4.44-7.13,9.65-6.21a29.17,29.17,0,0,0,4.81,0,15.53,15.53,0,0,1-.6,2.84q-22.78,51.82-45.57,103.63c-1.2,2.74-2.31,4.58-5.91,4.58-3.85,0-4-2.67-4.95-4.95q-21.32-50-42.62-100.07C671.48,147.86,670.79,146.08,669.77,143.58Z"/><path class="cls-1" d="M536.75,254.13V154H497.63v-10.2h91.8v9.9H548.29v6.85q0,43.32,0,86.65c0,8,1.12,7.13-7.48,7.22C539.68,254.46,538.57,254.28,536.75,254.13Z"/><path class="cls-1" d="M634.94,254.21H624V143.64h10.91Z"/><path class="cls-1" d="M585,355.33a27,27,0,0,1-26.83,27.09c-15.12.11-27.32-11.64-27.41-26.41-.09-15.57,11.48-27.44,26.77-27.48C573.07,328.48,584.83,340,585,355.33Zm-49.26,0c0,12.56,9.54,22.38,21.86,22.42,12.68,0,22.25-9.62,22.29-22.51a22,22,0,0,0-22.38-22.44C545.16,332.92,535.75,342.66,535.71,355.36Z"/><path class="cls-1" d="M420.51,380.94V329.7c8.05,0,15.91-.57,23.65.15,8.41.78,13.39,6.78,13.72,14.75.35,8.74-3.74,14.37-12.11,16.68-.92.26-1.82.58-3.08,1l13.38,18.44c-3.52,1.22-5.79.66-7.67-2.34-2.09-3.32-4.53-6.42-6.88-9.58-5.77-7.75-5.85-7.77-16.59-6.32,0,5.09-.05,10.27,0,15.46C425,381.08,423.68,382,420.51,380.94Zm4.74-23.37c5.87,0,11.44.43,16.91-.1,7.21-.71,10.71-4.87,10.76-11.62s-3.45-11.17-10.5-12c-5.61-.61-11.33-.12-17.17-.12Z"/><path class="cls-1" d="M641.18,362.32l13.26,18.24c-3.77,1.4-6.12.53-8-2.68s-4.68-6-6.36-9.31c-3.59-7.1-9.33-7.59-16.56-6V381l-1.28,1c-1.15-1-3.28-1.91-3.29-2.88-.2-16.34-.15-32.68-.15-49.2,8.46,0,16.64-.67,24.67.19,7.46.79,12,6.68,12.51,13.69.57,8.62-3.12,14.57-10.74,17.26C644,361.44,642.79,361.8,641.18,362.32Zm-17.49-4.94c6.27,0,12.17.55,17.93-.15,6.37-.77,9.59-5.36,9.53-11.73s-3.24-10.82-9.72-11.56c-5.76-.65-11.65-.13-17.74-.13Z"/><path class="cls-1" d="M246.69,368.78c0-11.77.05-23.54,0-35.3,0-3.08.68-4.7,4.19-3.62v51.41l-1,.5L215.52,340V380.5l-1.58,1c-1-1.13-2.93-2.25-2.94-3.39-.19-15.92-.13-31.84-.09-47.76,0-.39.48-.79,1.37-2.15,11.23,13.85,22.19,27.38,33.16,40.9Z"/><path class="cls-1" d="M353.37,329.27c10.41,0,20.54-.07,30.67.1,1,0,1.93,1.41,2.89,2.17-.95.62-1.89,1.75-2.85,1.77-6.88.16-13.77.09-20.66.09h-5.58v20c7.52,0,14.85-.12,22.16.1,1.35,0,2.65,1.38,4,2.12-1.29.6-2.56,1.7-3.86,1.73-7.2.17-14.4.08-22,.08v19.8h23.09c1.32,0,2.73-.28,3.91.13.94.33,1.59,1.49,2.37,2.29-.77.64-1.53,1.83-2.3,1.84-10.46.12-20.91.08-31.79.08Z"/><path class="cls-1" d="M720,333.24c-1.29,3.42-3,3.27-5.46,1.88a19.27,19.27,0,0,0-15.22-1.77c-4.16,1.19-6.17,4.17-6.51,8.3-.35,4.33,1.08,8,5.42,9.45,3.85,1.33,7.9,2.09,11.86,3.12,8.62,2.25,12.23,6.45,11.91,13.82s-5.35,12.65-13.47,13.9-15.62-.14-22.22-5.45c.77-3.31,2.19-3,5-2.06a55.43,55.43,0,0,0,15.12,3c2.71.1,6.08-1.73,8.15-3.73,4.86-4.69,3.12-11.92-3.24-14.19-4.14-1.48-8.59-2.08-12.82-3.37-8.1-2.49-11.45-7.33-10.56-14.84s6-12.22,13.83-12.88C708.28,327.91,714.48,328.85,720,333.24Z"/><path class="cls-1" d="M304.13,333.31v47.33c-4.37,1.71-4.66-.59-4.64-3.66.07-14.27,0-28.55,0-43.68-4.32,0-8.36.19-12.37-.09-1.4-.1-2.72-1.33-4.08-2,1.27-.61,2.53-1.73,3.8-1.75q15.76-.27,31.53-.12c1.26,0,2.5,1.2,3.76,1.84-1.2.73-2.36,2-3.59,2.08C314,333.47,309.43,333.31,304.13,333.31Z"/><path class="cls-1" d="M173,330v50.48c-3.27,1.26-4.82.71-4.79-3.17q.18-21.9,0-43.8C168.19,330.21,169.17,328.83,173,330Z"/><path class="cls-1" d="M492.52,330.1c3.12-1.11,4.41-.13,4.4,3-.06,14.9,0,29.81-.16,44.71,0,1.28-1.78,2.54-2.73,3.81l-1.51-.84Z"/><path class="cls-1" d="M564.26,285.39l7.18-10.09c2.27-3.2-2.65-6.68-5.07-3.58-.19.24-.37.49-.56.76-8.93,12.8-9.1,12.68-25,12.68H351c-15.88,0-16.05.12-25-12.69-.19-.27-.37-.52-.56-.76-2.42-3.1-7.34.39-5.07,3.59l7.18,10.09H0l.53,6.37h13q157.16,0,314.33-.06a12.84,12.84,0,0,1,9.45,3.69c7.87,7.13,16.07,13.93,24.25,20.89a3.26,3.26,0,0,0,4.2,0,3.17,3.17,0,0,0-.08-4.88l-23.36-19.15H549.52c-7.72,6.32-15.42,12.63-23.36,19.15a3.16,3.16,0,0,0-.08,4.87,3.25,3.25,0,0,0,4.2,0c8.18-6.95,16.38-13.75,24.25-20.89A12.88,12.88,0,0,1,564,291.7q157.17.14,314.33.06h13l.53-6.37Z"/></g></g></svg>