<svg width="46" height="39" viewBox="0 0 46 39" fill="none" xmlns="http://www.w3.org/2000/svg">
<path d="M35.1389 32.3518H11.2444C10.5769 32.7646 10.0631 33.3861 9.78178 34.1206C9.5005 34.8552 9.46741 35.6622 9.68759 36.4174C9.90777 37.1727 10.369 37.8345 11.0004 38.301C11.6319 38.7675 12.3985 39.0129 13.1824 38.9995H33.2009C33.9848 39.0129 34.7514 38.7675 35.3828 38.301C36.0143 37.8345 36.4755 37.1727 36.6957 36.4174C36.9159 35.6622 36.8828 34.8552 36.6015 34.1206C36.3202 33.3861 35.8064 32.7646 35.1389 32.3518ZM41.4 9.0527C40.1478 9.05832 38.9486 9.56008 38.0631 10.4488C37.1777 11.3375 36.6778 12.5412 36.6722 13.798C36.6722 14.0331 36.6722 14.2683 36.6722 14.5034L28.6009 17.1967L25.5129 8.90307C26.4322 8.39554 27.1571 7.59554 27.5735 6.62906C27.99 5.66257 28.0744 4.5845 27.8133 3.5646C27.5523 2.54471 26.9607 1.64093 26.1317 0.995591C25.3027 0.350248 24.2834 0 23.2342 0C22.1851 0 21.1658 0.350248 20.3368 0.995591C19.5078 1.64093 18.9162 2.54471 18.6551 3.5646C18.3941 4.5845 18.4785 5.66257 18.8949 6.62906C19.3114 7.59554 20.0363 8.39554 20.9555 8.90307L18.0166 17.2181L9.49811 14.4179C9.50949 14.1972 9.50949 13.976 9.49811 13.7553C9.50232 12.8107 9.22684 11.8862 8.70663 11.099C8.18642 10.3119 7.44493 9.6976 6.57629 9.33418C5.70764 8.97075 4.751 8.87456 3.82779 9.0578C2.90458 9.24104 2.05643 9.69546 1.39098 10.3634C0.725525 11.0313 0.272786 11.8826 0.090221 12.8092C-0.0923438 13.7359 0.00349778 14.696 0.365581 15.5679C0.727664 16.4398 1.33966 17.184 2.1239 17.7062C2.90814 18.2283 3.82925 18.5048 4.77033 18.5006C5.23938 18.494 5.70525 18.422 6.15459 18.2868L10.2861 28.034H35.8417L39.9518 18.3082C40.3826 18.4259 40.8259 18.4905 41.2722 18.5006C42.5261 18.5006 43.7286 18.0006 44.6153 17.1107C45.5019 16.2208 46 15.0138 46 13.7553C46 12.4967 45.5019 11.2897 44.6153 10.3998C43.7286 9.5099 42.5261 9.00995 41.2722 9.00995L41.4 9.0527Z" fill="white"/>
</svg>
