<svg width="38" height="38" viewBox="0 0 38 38" fill="none" xmlns="http://www.w3.org/2000/svg">
<path fill-rule="evenodd" clip-rule="evenodd" d="M19 38C29.4937 38 38 29.4937 38 19C38 8.5063 29.4937 0 19 0C8.5063 0 0 8.5063 0 19C0 29.4937 8.5063 38 19 38ZM17.1 11.4C17.1 10.8961 17.3002 10.4128 17.6565 10.0565C18.0128 9.70018 18.4961 9.5 19 9.5C19.5039 9.5 19.9872 9.70018 20.3435 10.0565C20.6998 10.4128 20.9 10.8961 20.9 11.4V19C20.9 19.5039 20.6998 19.9872 20.3435 20.3435C19.9872 20.6998 19.5039 20.9 19 20.9C18.4961 20.9 18.0128 20.6998 17.6565 20.3435C17.3002 19.9872 17.1 19.5039 17.1 19V11.4ZM20.9 26.6C20.9 27.1039 20.6998 27.5872 20.3435 27.9435C19.9872 28.2998 19.5039 28.5 19 28.5C18.4961 28.5 18.0128 28.2998 17.6565 27.9435C17.3002 27.5872 17.1 27.1039 17.1 26.6C17.1 26.0961 17.3002 25.6128 17.6565 25.2565C18.0128 24.9002 18.4961 24.7 19 24.7C19.5039 24.7 19.9872 24.9002 20.3435 25.2565C20.6998 25.6128 20.9 26.0961 20.9 26.6Z" fill="white"/>
</svg>
